<svg width="16" height="16" viewBox="0 0 16 16" fill="none" xmlns="http://www.w3.org/2000/svg">
<g clip-path="url(#clip0_130_8060)">
<path d="M0 2V7.33333H7.33333V0H2C1.46957 0 0.960859 0.210714 0.585786 0.585786C0.210714 0.960859 0 1.46957 0 2H0ZM6 6H1.33333V2C1.33333 1.82319 1.40357 1.65362 1.5286 1.5286C1.65362 1.40357 1.82319 1.33333 2 1.33333H6V6Z" fill="#7E7E7E"/>
<path d="M0 14C0 14.5304 0.210714 15.0391 0.585786 15.4142C0.960859 15.7892 1.46957 16 2 16H7.33333V8.66663H0V14ZM1.33333 9.99996H6V14.6666H2C1.82319 14.6666 1.65362 14.5964 1.5286 14.4714C1.40357 14.3463 1.33333 14.1768 1.33333 14V9.99996Z" fill="#7E7E7E"/>
<path d="M13.3333 14.278V1.72396L15.056 3.44396L16 2.50063L14.0807 0.583964C13.7057 0.209633 13.1975 -0.000610352 12.6677 -0.000610352C12.1378 -0.000610352 11.6296 0.209633 11.2547 0.583964L9.33799 2.4973L10.28 3.44063L12 1.7213V14.2773L10.2767 12.556L9.33466 13.4993L11.254 15.416C11.629 15.7903 12.1372 16.0005 12.667 16.0005C13.1968 16.0005 13.705 15.7903 14.08 15.416L16 13.5026L15.058 12.5593L13.3333 14.278Z" fill="#7E7E7E"/>
</g>
<defs>
<clipPath id="clip0_130_8060">
<rect width="16" height="16" fill="white"/>
</clipPath>
</defs>
</svg>
